<svg xmlns="http://www.w3.org/2000/svg" width="512" height="512" viewBox="0 0 512 512">
  <defs>
    <linearGradient id="bg" x1="0" y1="0" x2="1" y2="1">
      <stop offset="0%" stop-color="#102330"/>
      <stop offset="100%" stop-color="#244d68"/>
    </linearGradient>
    <radialGradient id="face" cx="50%" cy="42%" r="58%">
      <stop offset="0%" stop-color="#8df0ff"/>
      <stop offset="100%" stop-color="#3fb4c7"/>
    </radialGradient>
  </defs>
  <rect x="16" y="16" width="480" height="480" rx="84" fill="url(#bg)"/>
  <ellipse cx="256" cy="390" rx="162" ry="54" fill="#0b1b25" opacity="0.55"/>
  <path d="M120 288c0-92 61-168 136-168s136 76 136 168v44H120z" fill="url(#face)"/>
  <path d="M140 206l44-38 40 44-44 38z" fill="#77e7f7"/>
  <path d="M328 168l44 38-40 44-44-38z" fill="#77e7f7"/>
  <ellipse cx="198" cy="262" rx="28" ry="22" fill="#0f3f57"/>
  <ellipse cx="314" cy="262" rx="28" ry="22" fill="#0f3f57"/>
  <circle cx="204" cy="257" r="8" fill="#d9f9ff"/>
  <circle cx="320" cy="257" r="8" fill="#d9f9ff"/>
  <path d="M178 322c23 30 53 46 78 46s55-16 78-46" fill="none" stroke="#0f3f57" stroke-width="18" stroke-linecap="round"/>
  <rect x="40" y="40" width="432" height="432" rx="70" fill="none" stroke="#89d6e6" stroke-opacity="0.5" stroke-width="8"/>
</svg>
